<svg xmlns="http://www.w3.org/2000/svg" height="456pt" version="1.1" viewBox="-52 0 456 456" width="456pt">
<g id="surface1">
<path d="M 144 200 L 144 256 L 80 256 L 80 320 L 144 320 L 144 384 L 208 384 L 208 320 L 272 320 L 272 256 L 208 256 L 208 200 Z M 144 200 " style=" stroke:none;fill-rule:nonzero;fill:rgb(90.196078%,90.588235%,90.980392%);fill-opacity:1;" />
<path d="M 144 384 L 144 320 L 80 320 L 80 256 L 144 256 L 144 200 L 176 200 L 176 0 C 176 0 0 182.800781 0 280 C 0 377.203125 78.796875 456 176 456 L 176 384 Z M 144 384 " style=" stroke:none;fill-rule:nonzero;fill:rgb(67.058824%,13.72549%,0%);fill-opacity:1;" />
<path d="M 176 0 L 176 200 L 208 200 L 208 256 L 272 256 L 272 320 L 208 320 L 208 384 L 176 384 L 176 456 C 273.203125 456 352 377.203125 352 280 C 352 182.800781 176 0 176 0 Z M 176 0 " style=" stroke:none;fill-rule:nonzero;fill:rgb(80.392157%,16.470588%,0%);fill-opacity:1;" />
</g>
</svg>